<?xml version="1.0" encoding="UTF-8"?>
<svg version="1.1" viewBox="0 0 1024 1024" width="1024" height="1024" xmlns="http://www.w3.org/2000/svg">
<path transform="translate(0)" d="m0 0h1024v1024h-1024z" fill="#5CA480"/>
<path transform="translate(248,406)" d="m0 0 12 1 10 4 3 4 1 278 36 1 30 2 42 6 34 7 25 7 21 8 23 12 10 6v-185l1-38 3-3 7-2h11l7 3 1 2 1 57v167l21-13 21-10 30-10 31-7 33-5 34-3 51-1 1-279 5-4 9-3 11-1 5 4 1 4-1 301-4 6-6 4-3 1h-65l-25 2-30 4-26 5-25 7-19 7-16 8-16 10-14 11-8 5-4 1h-11l-10-4-11-9-15-10-23-12-33-11-23-5-28-5-36-4-17-1h-53l-7-3-5-5-3-7v-300l4-4z" fill="#F8F6E5"/>
<path transform="translate(702,218)" d="m0 0h12l11 3 9 5 7 6 7 11 3 12v9l-3 11-6 10-10 9-8 4-7 2-19 1-11 12-12 13-11 12-9 10-11 12-7 8-11 12-9 10-7 8-12 14-11 12-7 8-12 14-15 16-9 6h-7l-10-6-14-12-14-13-8-7-11-10-11-9-13-12-3-2-5 1-26 26-7 8-16 16-7 8-8 8-7 8-15 16-9 10-13 14-5 3-7-1-6-4-7-7-2-4v-6l6-9 15-16 9-10 14-15 8-8 7-8 15-15 7-8 9-9 7-8 14-14 7-8 6-7 6-4h10l8 4 11 10 11 9 15 14 11 9 14 13 8 7 5 4h5l11-12 9-10 7-8 12-13 7-8 11-12 7-8 11-12 27-30 11-12 7-8 9-10-3-10-1-4v-15l3-10 7-11 9-7 12-5z" fill="#F8F6E5"/>
</svg>
